<svg xmlns="http://www.w3.org/2000/svg" viewBox="0 0 44 18" class="design-iconfont" width="128" height="128"><path d="M24.7272727,4.26325641e-14 L33.5127273,17.4545455 L26.5345455,17.4545455 L21.1236364,6.70181818 L24.7272727,4.26325641e-14 Z M17.52,4.26325641e-14 L21.1236364,6.70181818 L15.7127273,17.4545455 L8.73090909,17.4545455 L17.52,4.26325641e-14 Z M41.5890909,12.6945455 L43.9818182,17.4545455 L35.0909091,17.4545455 L32.6981818,12.6945455 L41.5890909,12.6945455 Z M12.68,6.32 L7.08,17.4545455 L0.498181818,17.4545455 L6.09818182,6.32 L12.68,6.32 Z M38.4145455,6.32 L40.9090909,11.2727273 L32.0181818,11.2727273 L29.5272727,6.32 L38.4145455,6.32 Z M15.7890909,0.141818182 L13.3963636,4.89818182 L-3.55271368e-14,4.89818182 L2.39272727,0.141818182 L15.7890909,0.141818182 Z M35.2690909,0.141818182 L37.6654545,4.89818182 L28.7745455,4.89818182 L26.3818182,0.141818182 L35.2690909,0.141818182 Z" fill-rule="evenodd" fill="#ffffff"></path></svg>
