<svg width="25" height="25" viewBox="0 0 25 25" fill="none" xmlns="http://www.w3.org/2000/svg">
<path d="M5.68182 13.6364H1.13636C0.834981 13.6364 0.545943 13.7561 0.332833 13.9692C0.119724 14.1823 0 14.4713 0 14.7727V23.8636C0 24.165 0.119724 24.4541 0.332833 24.6672C0.545943 24.8803 0.834981 25 1.13636 25H5.68182C5.9832 25 6.27224 24.8803 6.48535 24.6672C6.69846 24.4541 6.81818 24.165 6.81818 23.8636V14.7727C6.81818 14.4713 6.69846 14.1823 6.48535 13.9692C6.27224 13.7561 5.9832 13.6364 5.68182 13.6364ZM4.54545 22.7273H2.27273V15.9091H4.54545V22.7273ZM23.8636 9.09091H19.3182C19.0168 9.09091 18.7278 9.21063 18.5147 9.42374C18.3015 9.63685 18.1818 9.92589 18.1818 10.2273V23.8636C18.1818 24.165 18.3015 24.4541 18.5147 24.6672C18.7278 24.8803 19.0168 25 19.3182 25H23.8636C24.165 25 24.4541 24.8803 24.6672 24.6672C24.8803 24.4541 25 24.165 25 23.8636V10.2273C25 9.92589 24.8803 9.63685 24.6672 9.42374C24.4541 9.21063 24.165 9.09091 23.8636 9.09091ZM22.7273 22.7273H20.4545V11.3636H22.7273V22.7273ZM14.7727 0H10.2273C9.92589 0 9.63685 0.119724 9.42374 0.332833C9.21063 0.545943 9.09091 0.834981 9.09091 1.13636V23.8636C9.09091 24.165 9.21063 24.4541 9.42374 24.6672C9.63685 24.8803 9.92589 25 10.2273 25H14.7727C15.0741 25 15.3631 24.8803 15.5763 24.6672C15.7894 24.4541 15.9091 24.165 15.9091 23.8636V1.13636C15.9091 0.834981 15.7894 0.545943 15.5763 0.332833C15.3631 0.119724 15.0741 0 14.7727 0ZM13.6364 22.7273H11.3636V2.27273H13.6364V22.7273Z" fill="#FF694A"/>
</svg>
